<svg xmlns="http://www.w3.org/2000/svg" viewBox="0 0 200 200" width="1024" height="1024">
  <rect width="200" height="200" rx="24" fill="#050a07"/>
  <g stroke="#d9b671" stroke-width="2.6" fill="none" stroke-linejoin="round" transform="translate(100 100) scale(0.78) translate(-100 -100)">
    <path d="M106 94 A62 62 0 0 1 174 26 A62 62 0 0 1 106 94Z"/>
    <path d="M106 94 A62 62 0 0 1 174 26 A62 62 0 0 1 106 94Z" transform="rotate(90 100 100)"/>
    <path d="M106 94 A62 62 0 0 1 174 26 A62 62 0 0 1 106 94Z" transform="rotate(180 100 100)"/>
    <path d="M106 94 A62 62 0 0 1 174 26 A62 62 0 0 1 106 94Z" transform="rotate(270 100 100)"/>
    <path d="M110.3 9.1 124.9 23.7 124.9 44.3 110.3 58.9 89.7 58.9 75.1 44.3 75.1 23.7 89.7 9.1Z"/>
    <path d="M110.3 9.1 124.9 23.7 124.9 44.3 110.3 58.9 89.7 58.9 75.1 44.3 75.1 23.7 89.7 9.1Z" transform="rotate(90 100 100)"/>
    <path d="M110.3 9.1 124.9 23.7 124.9 44.3 110.3 58.9 89.7 58.9 75.1 44.3 75.1 23.7 89.7 9.1Z" transform="rotate(180 100 100)"/>
    <path d="M110.3 9.1 124.9 23.7 124.9 44.3 110.3 58.9 89.7 58.9 75.1 44.3 75.1 23.7 89.7 9.1Z" transform="rotate(270 100 100)"/>
    <path d="M102 98 A30 30 0 0 1 134 66 A30 30 0 0 1 102 98Z"/>
    <path d="M102 98 A30 30 0 0 1 134 66 A30 30 0 0 1 102 98Z" transform="rotate(90 100 100)"/>
    <path d="M102 98 A30 30 0 0 1 134 66 A30 30 0 0 1 102 98Z" transform="rotate(180 100 100)"/>
    <path d="M102 98 A30 30 0 0 1 134 66 A30 30 0 0 1 102 98Z" transform="rotate(270 100 100)"/>
  </g>
  <path d="M100 88 112 100 100 112 88 100Z" fill="#d9b671" transform="translate(100 100) scale(0.78) translate(-100 -100)"/>
</svg>
